<svg width="160" height="148" viewBox="0 0 160 148" fill="none" xmlns="http://www.w3.org/2000/svg">
  <defs>
    <linearGradient id="mainGradient" x1="0" y1="0" x2="160" y2="148" gradientUnits="userSpaceOnUse">
      <stop stop-color="#4F46E5"/>
      <stop offset="1" stop-color="#9333EA"/>
    </linearGradient>
  </defs>
  <path d="M80 120c-8-6-16-12-20-16-2-2-3-4-2-7l3-17c-18-9-38-20-48-38 18 18 38 25 56 36 2 1 3 3 2 5l-3 17c6 5 13 10 18 13 5-3 12-8 18-13l-3-17c-1-2 0-4 2-5 18-11 38-18 56-36-10 18-30 29-48 38l3 17c1 3 0 5-2 7-4 4-12 10-20 16z" fill="url(#mainGradient)"/>
</svg>
